<?xml version="1.0" encoding="UTF-8"?>
<svg xmlns="http://www.w3.org/2000/svg" viewBox="0 0 512 512" fill="none" role="img" aria-label="悟空撸码">
  <!-- Monoline icon, optically centered in the tile -->
  <g stroke="#F59E0B" stroke-width="20" stroke-linecap="round" stroke-linejoin="round" transform="translate(0 -7)">
    <!-- Head -->
    <circle cx="256" cy="214" r="100"/>

    <!-- Ears -->
    <path d="M166 196a30 30 0 1 0 10 50"/>
    <path d="M346 196a30 30 0 1 1-10 50"/>

    <!-- 紧箍 -->
    <path d="M186 186c16-28 42-42 70-42s54 14 70 42"/>

    <!-- Eyes -->
    <circle cx="224" cy="214" r="8" fill="#F59E0B" stroke="none"/>
    <circle cx="288" cy="214" r="8" fill="#F59E0B" stroke="none"/>

    <!-- Smile -->
    <path d="M224 252c12 18 52 18 64 0"/>

    <!-- Code cue: </> -->
    <path d="M176 348 L140 380 L176 412"/>
    <path d="M276 348 L236 412"/>
    <path d="M336 348 L372 380 L336 412"/>
  </g>
</svg>
